<mxfile host="app.diagrams.net" modified="2020-08-24T19:22:31.581Z" agent="5.0 (X11)" etag="20eBJF_yCZ1i0CH4opoc" version="13.6.5" type="github">
  <diagram id="xfuP17FK5kWp8BaGcELE" name="Page-1">
    <mxGraphModel dx="2062" dy="756" grid="1" gridSize="10" guides="1" tooltips="1" connect="1" arrows="1" fold="1" page="1" pageScale="1" pageWidth="850" pageHeight="1100" math="0" shadow="0">
      <root>
        <mxCell id="0" />
        <mxCell id="1" parent="0" />
        <mxCell id="hUkLLyyMaZW1QtFRx6ls-1" value="Awesome Testing" style="ellipse;whiteSpace=wrap;html=1;aspect=fixed;" vertex="1" parent="1">
          <mxGeometry x="380" y="350" width="80" height="80" as="geometry" />
        </mxCell>
      </root>
    </mxGraphModel>
  </diagram>
</mxfile>
